<?xml version="1.0" encoding="UTF-8" standalone="no"?>
<!-- Created with Inkscape (http://www.inkscape.org/) -->

<svg
   width="183.5293"
   height="87.66291"
   id="svg2"
   version="1.1"
   inkscape:version="1.1.2 (0a00cf5339, 2022-02-04)"
   sodipodi:docname="eye.svg"
   xmlns:inkscape="http://www.inkscape.org/namespaces/inkscape"
   xmlns:sodipodi="http://sodipodi.sourceforge.net/DTD/sodipodi-0.dtd"
   xmlns="http://www.w3.org/2000/svg"
   xmlns:svg="http://www.w3.org/2000/svg"
   xmlns:rdf="http://www.w3.org/1999/02/22-rdf-syntax-ns#"
   xmlns:cc="http://creativecommons.org/ns#"
   xmlns:dc="http://purl.org/dc/elements/1.1/">
  <defs
     id="defs4">
    <clipPath
       id="SVGID_2_">
      <polygon
         points="130,115 85,277 232,196 "
         id="use380" />
    </clipPath>
    <clipPath
       id="SVGID_4_">
      <polygon
         points="130,115 85,277 232,196 "
         id="use391" />
    </clipPath>
    <clipPath
       id="SVGID_6_">
      <polygon
         points="130,115 85,277 232,196 "
         id="use520" />
    </clipPath>
  </defs>
  <sodipodi:namedview
     id="base"
     pagecolor="#ffffff"
     bordercolor="#666666"
     borderopacity="1.0"
     inkscape:pageopacity="0.0"
     inkscape:pageshadow="2"
     inkscape:zoom="1.0386525"
     inkscape:cx="39.474223"
     inkscape:cy="108.31342"
     inkscape:document-units="px"
     inkscape:current-layer="layer1"
     showgrid="false"
     inkscape:window-width="1850"
     inkscape:window-height="1016"
     inkscape:window-x="70"
     inkscape:window-y="27"
     inkscape:window-maximized="1"
     fit-margin-top="0"
     fit-margin-left="0"
     fit-margin-right="0"
     fit-margin-bottom="0"
     inkscape:pagecheckerboard="0" />
  <metadata
     id="metadata7">
    <rdf:RDF>
      <cc:Work
         rdf:about="">
        <dc:format>image/svg+xml</dc:format>
        <dc:type
           rdf:resource="http://purl.org/dc/dcmitype/StillImage" />
        <dc:title />
      </cc:Work>
    </rdf:RDF>
  </metadata>
  <g
     inkscape:label="Layer 1"
     inkscape:groupmode="layer"
     id="layer1"
     transform="translate(-318.08905,-67.577141)">
    <g
       id="g2896">
      <rect
         style="opacity:1;fill:#ffffff;stroke:none;stroke-width:3.77953;stroke-linecap:round;stop-color:#000000"
         id="rect1048"
         width="183.5293"
         height="87.66291"
         x="318.08905"
         y="67.577141" />
      <g
         transform="matrix(0.79161249,0,0,0.79161249,-1548.8074,-516.93112)"
         id="g17693">
        <path
           style="display:inline;overflow:visible;visibility:visible;fill:#d40000;fill-opacity:1;fill-rule:evenodd;stroke:none;stroke-width:5;marker:none;enable-background:accumulate"
           d="m 2483.5466,780.17548 c -0.9976,-0.13381 -1.8812,-0.36648 -2.9063,-0.46875 -3.6246,-0.36161 -7.3809,-0.4812 -11.1563,-0.28125 -1.8876,0.1 -3.7875,0.27324 -5.6562,0.5625 -1.8687,0.28926 -3.7193,0.67636 -5.5312,1.1875 -0.7497,0.21146 -1.4522,0.52787 -2.1876,0.78125 -0.8567,1.92647 -1.3437,4.03805 -1.3437,6.28125 0,8.57617 6.9551,15.53123 15.5313,15.53125 8.5761,0 15.5624,-6.95508 15.5624,-15.53125 0,-2.96289 -0.8713,-5.70571 -2.3124,-8.0625 z"
           id="path17695"
           inkscape:connector-curvature="0" />
        <path
           style="fill:none;stroke:#000000;stroke-width:3.88971;stroke-linecap:butt;stroke-linejoin:miter;stroke-miterlimit:4;stroke-dasharray:none;stroke-opacity:1"
           d="m 2438.5157,792.47739 c 20.0711,-28.67046 70.2902,-8.32384 70.2902,-8.32384 -6.5113,12.30239 -41.8676,39.21773 -70.2902,8.32384 z"
           id="path17697"
           sodipodi:nodetypes="ccc"
           inkscape:connector-curvature="0" />
        <circle
           style="display:inline;overflow:visible;visibility:visible;fill:#000000;fill-opacity:1;fill-rule:evenodd;stroke:none;stroke-width:5;marker:none;enable-background:accumulate"
           id="path17699"
           transform="translate(171.6418,-54.747815)"
           cx="2298.6685"
           cy="842.24896"
           r="8.1381884" />
      </g>
    </g>
  </g>
</svg>
